<svg width="512" height="512" viewBox="0 0 512 512" fill="none" xmlns="http://www.w3.org/2000/svg">
<g clip-path="url(#clip0_2_2)">
<mask id="path-1-inside-1_2_2" fill="white">
<path d="M208.001 4.74892C209.453 3.16232 211.211 1.91925 213.158 1.10298C215.106 0.286714 217.197 -0.0839152 219.292 0.0159185C221.387 0.115752 223.437 0.683744 225.306 1.68185C227.175 2.67996 228.818 4.08514 230.127 5.80328L241.098 19.6059C242.976 21.7999 245.274 23.5547 247.842 24.756C250.409 25.9573 253.19 26.5781 256.001 26.5781C258.813 26.5781 261.594 25.9573 264.161 24.756C266.729 23.5547 269.027 21.7999 270.905 19.6059L281.968 5.61158C283.295 3.92553 284.948 2.55469 286.82 1.59003C288.691 0.625382 290.736 0.0889924 292.82 0.0164716C294.904 -0.0560492 296.979 0.33696 298.906 1.16941C300.834 2.00185 302.571 3.25469 304.002 4.84477C329.387 33.6237 346.06 69.6494 351.911 108.364C318.701 117.699 288.645 136.591 265.144 162.904V156.386C267.913 154.697 270.208 152.274 271.8 149.361C273.392 146.447 274.225 143.146 274.214 139.788C274.204 136.431 273.351 133.135 271.741 130.233C270.131 127.33 267.82 124.923 265.042 123.253C262.263 121.583 259.115 120.709 255.912 120.719C252.709 120.728 249.565 121.622 246.796 123.308C244.027 124.995 241.73 127.417 240.136 130.329C238.542 133.241 237.707 136.542 237.716 139.899C237.705 143.251 238.546 146.545 240.153 149.443C241.76 152.341 244.075 154.737 246.859 156.386V213.992C238.92 215.47 231.406 218.817 224.881 223.782C218.356 228.746 212.991 235.198 209.189 242.652L190.538 236.326C182.531 225.441 175.95 213.481 170.972 200.765C164.618 183.87 160.556 166.124 158.903 148.047C151.982 88.0342 187.658 25.0119 208.001 4.74892ZM98.1021 322.592C116.875 329.486 136.635 332.954 156.526 332.848C173.562 333.206 190.506 330.148 206.447 323.838L217.967 307.256C212.344 301.19 208.12 293.856 205.616 285.815C203.112 277.774 202.395 269.239 203.521 260.864C190.702 256.512 164.306 247.54 151.406 243.131C149.019 245.38 146.11 246.93 142.971 247.627C139.832 248.324 136.574 248.143 133.522 247.102C130.471 246.061 127.735 244.196 125.589 241.696C123.443 239.195 121.962 236.146 121.296 232.856C120.629 229.565 120.8 226.149 121.791 222.95C122.783 219.751 124.56 216.881 126.944 214.63C129.328 212.378 132.235 210.824 135.373 210.124C138.512 209.423 141.771 209.6 144.823 210.638C147.891 211.663 150.643 213.527 152.796 216.037C154.949 218.547 156.426 221.613 157.074 224.92L162.834 226.837C159.41 220.649 156.415 214.21 153.874 207.57C143.635 180.798 138.99 152.035 140.251 123.221C103.304 116.941 65.4087 122.521 31.5412 139.228C29.6521 140.176 27.9749 141.531 26.6191 143.204C25.2632 144.877 24.2592 146.831 23.6725 148.939C23.0858 151.046 22.9296 153.26 23.2142 155.435C23.4987 157.61 24.2176 159.698 25.324 161.562L34.6498 176.802C36.1447 179.326 37.0974 182.161 37.4418 185.11C37.7861 188.059 37.5138 191.052 36.6437 193.879C35.7737 196.707 34.3268 199.302 32.4035 201.484C30.4803 203.667 28.1269 205.384 25.5068 206.516C18.3387 210.13 3.25278 212.842 0.820749 222.523C0.140583 224.557 -0.121439 226.719 0.0518958 228.866C0.225231 231.014 0.829997 233.099 1.82647 234.984C20.04 269.266 47.5699 297.093 80.9133 314.924C86.5074 317.802 92.2453 320.362 98.1021 322.592ZM286.722 375.981C289.748 362.579 291.1 348.821 290.745 335.053L279.316 318.47C272.068 322.234 264.09 324.192 256.001 324.192C247.913 324.192 239.935 322.234 232.687 318.47L200.504 365.16C202.082 369 202.412 373.278 201.441 377.334C200.47 381.39 198.252 384.998 195.131 387.601C192.01 390.205 188.158 391.659 184.17 391.74C180.182 391.82 176.279 390.523 173.065 388.047C169.85 385.572 167.502 382.056 166.383 378.042C165.263 374.028 165.435 369.74 166.872 365.839C168.308 361.938 170.929 358.641 174.331 356.457C177.732 354.272 181.724 353.322 185.692 353.753L189.166 348.769C155.39 355.431 120.513 352.146 88.4106 339.28C71.2518 374.183 64.559 413.71 69.2103 452.672C69.5152 454.821 70.245 456.879 71.3529 458.715C72.4608 460.551 73.9224 462.124 75.644 463.333C77.3656 464.542 79.3092 465.361 81.3502 465.737C83.3912 466.113 85.4846 466.038 87.4963 465.516C97.2335 463.379 111.634 456.305 120.502 464.174C137.444 475.331 118.162 514.094 146.834 511.812C202.734 502.103 269.295 453.899 286.722 375.991V375.981ZM280.048 242.556C275.351 237.835 269.483 234.594 263.113 233.203C256.743 231.812 250.128 232.327 244.024 234.69C237.921 237.053 232.574 241.167 228.594 246.564C224.615 251.961 222.164 258.423 221.521 265.211C220.878 271.998 222.068 278.839 224.957 284.951C227.846 291.063 232.317 296.2 237.858 299.776C243.399 303.351 249.788 305.22 256.294 305.17C262.801 305.12 269.163 303.152 274.653 299.492C279.082 296.528 282.812 292.55 285.562 287.857C288.312 283.164 290.011 277.878 290.53 272.396C291.049 266.915 290.376 261.382 288.56 256.213C286.744 251.045 283.834 246.375 280.048 242.556ZM413.901 322.592C400.423 301.958 383.022 284.467 362.792 271.216C351.607 264.071 339.592 258.466 327.043 254.538L308.482 260.864C309.619 269.24 308.909 277.778 306.404 285.821C303.9 293.863 299.669 301.197 294.036 307.256C302.027 318.691 318.265 342.242 326.311 353.744C330.306 353.295 334.332 354.239 337.764 356.43C341.196 358.621 343.844 361.937 345.297 365.864C346.751 369.791 346.929 374.111 345.805 378.156C344.681 382.2 342.317 385.744 339.078 388.238C335.84 390.732 331.908 392.037 327.89 391.952C323.873 391.867 319.994 390.397 316.854 387.768C313.714 385.139 311.487 381.499 310.52 377.411C309.552 373.322 309.896 369.013 311.499 365.15L308.025 360.07C304.44 389.228 294.525 417.137 279.042 441.649C275.682 447.148 272.05 452.459 268.162 457.56C294.481 485.498 328.281 504.386 365.077 511.716C367.091 512.127 369.164 512.091 371.163 511.613C373.163 511.134 375.045 510.223 376.689 508.937C389.27 498.489 376.835 473.721 391.501 464.174C405.005 452.538 423.135 472.417 436.484 463.311C454.34 450.189 441.513 358.335 413.901 322.602V322.592ZM511.182 222.523C508.933 213.072 493.609 210.072 486.496 206.516C483.881 205.392 481.531 203.683 479.61 201.51C477.688 199.336 476.242 196.75 475.372 193.93C474.502 191.111 474.228 188.126 474.57 185.185C474.912 182.243 475.862 179.415 477.353 176.898L486.588 161.562C487.709 159.712 488.444 157.635 488.747 155.467C489.049 153.298 488.91 151.087 488.341 148.979C487.771 146.87 486.783 144.911 485.441 143.231C484.099 141.551 482.433 140.187 480.553 139.228C444.411 119.272 370.636 109.083 316.985 144.309C293.14 160.91 289.703 160.172 265.144 193.384V213.992C273.084 215.465 280.601 218.811 287.126 223.776C293.652 228.74 299.016 235.195 302.814 242.652C315.614 238.281 342.028 229.29 354.929 224.92C355.758 220.787 357.866 217.057 360.925 214.308C363.983 211.56 367.822 209.946 371.844 209.719C375.867 209.491 379.849 210.661 383.172 213.048C386.495 215.435 388.974 218.906 390.224 222.921C391.474 226.936 391.424 231.271 390.084 235.253C388.743 239.236 386.186 242.643 382.81 244.947C379.433 247.25 375.426 248.321 371.409 247.992C367.393 247.664 363.592 245.955 360.597 243.131L354.837 245.048C385.979 260.42 412.393 284.626 431.09 314.924C464.403 297.093 491.925 269.307 510.177 235.08C511.171 233.177 511.775 231.076 511.948 228.913C512.121 226.751 511.86 224.574 511.182 222.523Z"/>
</mask>
<path d="M208.001 4.74892C209.453 3.16232 211.211 1.91925 213.158 1.10298C215.106 0.286714 217.197 -0.0839152 219.292 0.0159185C221.387 0.115752 223.437 0.683744 225.306 1.68185C227.175 2.67996 228.818 4.08514 230.127 5.80328L241.098 19.6059C242.976 21.7999 245.274 23.5547 247.842 24.756C250.409 25.9573 253.19 26.5781 256.001 26.5781C258.813 26.5781 261.594 25.9573 264.161 24.756C266.729 23.5547 269.027 21.7999 270.905 19.6059L281.968 5.61158C283.295 3.92553 284.948 2.55469 286.82 1.59003C288.691 0.625382 290.736 0.0889924 292.82 0.0164716C294.904 -0.0560492 296.979 0.33696 298.906 1.16941C300.834 2.00185 302.571 3.25469 304.002 4.84477C329.387 33.6237 346.06 69.6494 351.911 108.364C318.701 117.699 288.645 136.591 265.144 162.904V156.386C267.913 154.697 270.208 152.274 271.8 149.361C273.392 146.447 274.225 143.146 274.214 139.788C274.204 136.431 273.351 133.135 271.741 130.233C270.131 127.33 267.82 124.923 265.042 123.253C262.263 121.583 259.115 120.709 255.912 120.719C252.709 120.728 249.565 121.622 246.796 123.308C244.027 124.995 241.73 127.417 240.136 130.329C238.542 133.241 237.707 136.542 237.716 139.899C237.705 143.251 238.546 146.545 240.153 149.443C241.76 152.341 244.075 154.737 246.859 156.386V213.992C238.92 215.47 231.406 218.817 224.881 223.782C218.356 228.746 212.991 235.198 209.189 242.652L190.538 236.326C182.531 225.441 175.95 213.481 170.972 200.765C164.618 183.87 160.556 166.124 158.903 148.047C151.982 88.0342 187.658 25.0119 208.001 4.74892ZM98.1021 322.592C116.875 329.486 136.635 332.954 156.526 332.848C173.562 333.206 190.506 330.148 206.447 323.838L217.967 307.256C212.344 301.19 208.12 293.856 205.616 285.815C203.112 277.774 202.395 269.239 203.521 260.864C190.702 256.512 164.306 247.54 151.406 243.131C149.019 245.38 146.11 246.93 142.971 247.627C139.832 248.324 136.574 248.143 133.522 247.102C130.471 246.061 127.735 244.196 125.589 241.696C123.443 239.195 121.962 236.146 121.296 232.856C120.629 229.565 120.8 226.149 121.791 222.95C122.783 219.751 124.56 216.881 126.944 214.63C129.328 212.378 132.235 210.824 135.373 210.124C138.512 209.423 141.771 209.6 144.823 210.638C147.891 211.663 150.643 213.527 152.796 216.037C154.949 218.547 156.426 221.613 157.074 224.92L162.834 226.837C159.41 220.649 156.415 214.21 153.874 207.57C143.635 180.798 138.99 152.035 140.251 123.221C103.304 116.941 65.4087 122.521 31.5412 139.228C29.6521 140.176 27.9749 141.531 26.6191 143.204C25.2632 144.877 24.2592 146.831 23.6725 148.939C23.0858 151.046 22.9296 153.26 23.2142 155.435C23.4987 157.61 24.2176 159.698 25.324 161.562L34.6498 176.802C36.1447 179.326 37.0974 182.161 37.4418 185.11C37.7861 188.059 37.5138 191.052 36.6437 193.879C35.7737 196.707 34.3268 199.302 32.4035 201.484C30.4803 203.667 28.1269 205.384 25.5068 206.516C18.3387 210.13 3.25278 212.842 0.820749 222.523C0.140583 224.557 -0.121439 226.719 0.0518958 228.866C0.225231 231.014 0.829997 233.099 1.82647 234.984C20.04 269.266 47.5699 297.093 80.9133 314.924C86.5074 317.802 92.2453 320.362 98.1021 322.592ZM286.722 375.981C289.748 362.579 291.1 348.821 290.745 335.053L279.316 318.47C272.068 322.234 264.09 324.192 256.001 324.192C247.913 324.192 239.935 322.234 232.687 318.47L200.504 365.16C202.082 369 202.412 373.278 201.441 377.334C200.47 381.39 198.252 384.998 195.131 387.601C192.01 390.205 188.158 391.659 184.17 391.74C180.182 391.82 176.279 390.523 173.065 388.047C169.85 385.572 167.502 382.056 166.383 378.042C165.263 374.028 165.435 369.74 166.872 365.839C168.308 361.938 170.929 358.641 174.331 356.457C177.732 354.272 181.724 353.322 185.692 353.753L189.166 348.769C155.39 355.431 120.513 352.146 88.4106 339.28C71.2518 374.183 64.559 413.71 69.2103 452.672C69.5152 454.821 70.245 456.879 71.3529 458.715C72.4608 460.551 73.9224 462.124 75.644 463.333C77.3656 464.542 79.3092 465.361 81.3502 465.737C83.3912 466.113 85.4846 466.038 87.4963 465.516C97.2335 463.379 111.634 456.305 120.502 464.174C137.444 475.331 118.162 514.094 146.834 511.812C202.734 502.103 269.295 453.899 286.722 375.991V375.981ZM280.048 242.556C275.351 237.835 269.483 234.594 263.113 233.203C256.743 231.812 250.128 232.327 244.024 234.69C237.921 237.053 232.574 241.167 228.594 246.564C224.615 251.961 222.164 258.423 221.521 265.211C220.878 271.998 222.068 278.839 224.957 284.951C227.846 291.063 232.317 296.2 237.858 299.776C243.399 303.351 249.788 305.22 256.294 305.17C262.801 305.12 269.163 303.152 274.653 299.492C279.082 296.528 282.812 292.55 285.562 287.857C288.312 283.164 290.011 277.878 290.53 272.396C291.049 266.915 290.376 261.382 288.56 256.213C286.744 251.045 283.834 246.375 280.048 242.556ZM413.901 322.592C400.423 301.958 383.022 284.467 362.792 271.216C351.607 264.071 339.592 258.466 327.043 254.538L308.482 260.864C309.619 269.24 308.909 277.778 306.404 285.821C303.9 293.863 299.669 301.197 294.036 307.256C302.027 318.691 318.265 342.242 326.311 353.744C330.306 353.295 334.332 354.239 337.764 356.43C341.196 358.621 343.844 361.937 345.297 365.864C346.751 369.791 346.929 374.111 345.805 378.156C344.681 382.2 342.317 385.744 339.078 388.238C335.84 390.732 331.908 392.037 327.89 391.952C323.873 391.867 319.994 390.397 316.854 387.768C313.714 385.139 311.487 381.499 310.52 377.411C309.552 373.322 309.896 369.013 311.499 365.15L308.025 360.07C304.44 389.228 294.525 417.137 279.042 441.649C275.682 447.148 272.05 452.459 268.162 457.56C294.481 485.498 328.281 504.386 365.077 511.716C367.091 512.127 369.164 512.091 371.163 511.613C373.163 511.134 375.045 510.223 376.689 508.937C389.27 498.489 376.835 473.721 391.501 464.174C405.005 452.538 423.135 472.417 436.484 463.311C454.34 450.189 441.513 358.335 413.901 322.602V322.592ZM511.182 222.523C508.933 213.072 493.609 210.072 486.496 206.516C483.881 205.392 481.531 203.683 479.61 201.51C477.688 199.336 476.242 196.75 475.372 193.93C474.502 191.111 474.228 188.126 474.57 185.185C474.912 182.243 475.862 179.415 477.353 176.898L486.588 161.562C487.709 159.712 488.444 157.635 488.747 155.467C489.049 153.298 488.91 151.087 488.341 148.979C487.771 146.87 486.783 144.911 485.441 143.231C484.099 141.551 482.433 140.187 480.553 139.228C444.411 119.272 370.636 109.083 316.985 144.309C293.14 160.91 289.703 160.172 265.144 193.384V213.992C273.084 215.465 280.601 218.811 287.126 223.776C293.652 228.74 299.016 235.195 302.814 242.652C315.614 238.281 342.028 229.29 354.929 224.92C355.758 220.787 357.866 217.057 360.925 214.308C363.983 211.56 367.822 209.946 371.844 209.719C375.867 209.491 379.849 210.661 383.172 213.048C386.495 215.435 388.974 218.906 390.224 222.921C391.474 226.936 391.424 231.271 390.084 235.253C388.743 239.236 386.186 242.643 382.81 244.947C379.433 247.25 375.426 248.321 371.409 247.992C367.393 247.664 363.592 245.955 360.597 243.131L354.837 245.048C385.979 260.42 412.393 284.626 431.09 314.924C464.403 297.093 491.925 269.307 510.177 235.08C511.171 233.177 511.775 231.076 511.948 228.913C512.121 226.751 511.86 224.574 511.182 222.523Z" fill="url(#paint0_linear_2_2)" stroke="black" stroke-width="2" mask="url(#path-1-inside-1_2_2)"/>
</g>
<defs>
<linearGradient id="paint0_linear_2_2" x1="-0.00212017" y1="256.004" x2="512.005" y2="256.004" gradientUnits="userSpaceOnUse">
<stop stop-color="#FFA68D"/>
<stop offset="1" stop-color="#FD3A84"/>
</linearGradient>
<clipPath id="clip0_2_2">
<rect width="512" height="512" fill="white"/>
</clipPath>
</defs>
</svg>
